<!DOCTYPE svg PUBLIC "-//W3C//DTD SVG 1.1//EN" "http://www.w3.org/Graphics/SVG/1.1/DTD/svg11.dtd">
<!-- Uploaded to: SVG Repo, www.svgrepo.com, Transformed by: SVG Repo Mixer Tools -->
<svg fill="#000000" height="117px" width="117px" version="1.1" id="Capa_1" xmlns="http://www.w3.org/2000/svg" xmlns:xlink="http://www.w3.org/1999/xlink" viewBox="-18.48 -18.48 221.71 221.71" xml:space="preserve" transform="matrix(-1, 0, 0, 1, 0, 0)rotate(90)" stroke="#000000">
<g id="SVGRepo_bgCarrier" stroke-width="0" transform="translate(0,0), scale(1)">
<path transform="translate(-18.48, -18.48), scale(6.9284375)" d="M16,31.198474504881435C18.38298937317551,31.446271203103034,20.634333130220238,29.888658366280886,22.50126193650282,28.387119692590055C24.214854574168765,27.008906657498116,25.324813685187912,25.04982982536416,26.169380793813936,23.019416740056805C26.91598156348658,21.224523289008232,26.631261230267224,19.23521974678356,27.093493496851558,17.346993981250968C27.626656704351007,15.169014254578691,29.575526353735455,13.222407582491508,29.104308922677056,11.030191163363764C28.63865900095558,8.863876131955559,26.71000558491895,7.10646272093559,24.694437203308276,6.186009156677365C22.765970961625953,5.305332697419915,20.439661042097097,6.8196373848480745,18.426802908697066,6.154073559205539C16.16136449054351,5.4049925209920024,14.976352012659802,2.3347404526695614,12.59496899371642,2.185246153964659C10.302628611196944,2.0413416181753137,8.463625357667821,4.042140337130153,6.620673556761982,5.412929016791688C4.654706756584055,6.8752163283479195,1.3279775878824283,8.032109132954625,1.4437385439008068,10.479538200772915C1.5833075616919192,13.430319559684508,5.949350854857769,14.382771369049879,7.172131140377974,17.071897344561336C7.909651982282492,18.693845683876255,6.321251716791499,20.6213844756229,6.83160734830485,22.32848451283003C7.396302701820531,24.217346709057395,8.75473338322354,25.734226852458455,10.171638121819274,27.105015749540726C11.903057689775043,28.78008299668466,13.60384052954339,30.94930830553732,16,31.198474504881435" fill="#7ed0ec" strokewidth="0"/>
</g>
<g id="SVGRepo_tracerCarrier" stroke-linecap="round" stroke-linejoin="round" stroke="#CCCCCC" stroke-width="1.478008"/>
<g id="SVGRepo_iconCarrier"> <path d="M0,92.375l46.188-80h92.378l46.185,80l-46.185,80H46.188L0,92.375z"/> </g>
</svg>